<?xml version="1.0" encoding="utf-8"?>
<!-- Generator: Adobe Illustrator 22.1.0, SVG Export Plug-In . SVG Version: 6.00 Build 0)  -->
<svg version="1.1" id="Layer_1" xmlns="http://www.w3.org/2000/svg" xmlns:xlink="http://www.w3.org/1999/xlink" x="0px" y="0px"
	 viewBox="0 0 283.5 283.5" style="enable-background:new 0 0 283.5 283.5;" xml:space="preserve">
<style type="text/css">
	.st0{clip-path:url(#SVGID_2_);fill:#FFFFFF;}
</style>
<g>
	<defs>
		<rect id="SVGID_1_" x="4.7" y="5" width="200.4" height="271.4"/>
	</defs>
	<clipPath id="SVGID_2_">
		<use xlink:href="#SVGID_1_"  style="overflow:visible;"/>
	</clipPath>
	<path class="st0" d="M53,235.7v-79h45.3c39.1,0,58.7,10,58.7,38.4c0,35.7-35.7,40.7-60.6,40.7H53z M53,115.4V44.8h38.8
		c36.4,0,53.7,9.6,53.7,33.8c0,23.4-17.3,36.8-49.5,36.8H53z M102.4,276.3c51.4,0,102.7-19.9,102.7-78.9c0-36.4-24.5-59.4-58.6-64
		v-0.8c28-8.4,47.1-28.7,47.1-59.4c0-49.5-42.1-68.2-83.2-68.2H4.7v271.4H102.4z"/>
</g>
</svg>
