<?xml version="1.0" encoding="UTF-8"?>
<svg xmlns="http://www.w3.org/2000/svg" style="fill:#fff" xmlns:xlink="http://www.w3.org/1999/xlink" viewBox="0 0 50 50" version="1.1" width="50px" height="50px">
<g id="surface1">
<path style=" " d="M 25 4 C 12.328125 4 2 12.878906 2 23.992188 C 2 30.445313 5.53125 36.0625 10.960938 39.730469 C 10.953125 39.945313 10.96875 40.296875 10.683594 41.34375 C 10.335938 42.644531 9.625 44.472656 8.1875 46.535156 L 7.164063 48 L 8.949219 48 C 15.140625 48 18.722656 43.964844 19.277344 43.316406 C 21.121094 43.75 23.019531 43.988281 25 43.988281 C 37.671875 43.988281 48 35.109375 48 23.992188 C 48 12.878906 37.671875 4 25 4 Z M 26 34.199219 L 23.300781 34.199219 L 23.300781 31.300781 L 26 31.300781 Z M 30.5 21.601563 C 30.101563 22.199219 29.300781 23.101563 28 24.300781 C 27.101563 25.199219 26.5 25.898438 26.199219 26.5 C 25.898438 27 25.800781 27.800781 25.800781 29 L 23.300781 29 C 23.300781 27.699219 23.5 26.601563 23.800781 25.800781 C 24.101563 25 24.800781 24.101563 25.898438 23 L 27 21.898438 C 27.300781 21.601563 27.601563 21.300781 27.800781 20.898438 C 28.199219 20.300781 28.398438 19.699219 28.398438 19 C 28.398438 18.101563 28.101563 17.300781 27.601563 16.699219 C 27.101563 16 26.101563 15.699219 24.898438 15.699219 C 23.300781 15.699219 22.199219 16.300781 21.601563 17.398438 C 21.300781 18 21.101563 19 21 20.101563 L 18.5 20.101563 C 18.601563 18.199219 19.101563 16.601563 20.300781 15.398438 C 21.398438 14.199219 23 13.601563 25 13.601563 C 26.800781 13.601563 28.300781 14.101563 29.398438 15.199219 C 30.5 16.199219 31.101563 17.601563 31.101563 19.199219 C 31.101563 20.199219 30.898438 21 30.5 21.601563 Z "/>
</g>
</svg>
