<?xml version="1.0" encoding="utf-8"?>
<!-- Generator: Adobe Illustrator 22.1.0, SVG Export Plug-In . SVG Version: 6.00 Build 0)  -->
<svg version="1.1" id="Layer_1" xmlns="http://www.w3.org/2000/svg" xmlns:xlink="http://www.w3.org/1999/xlink" x="0px" y="0px"
	 viewBox="0 0 566.9 141.7" style="enable-background:new 0 0 566.9 141.7;fill:#fff;" xml:space="preserve">
<style type="text/css">
	.st0{clip-path:url(#SVGID_2_);}
</style>
<g>
	<g>
		<defs>
			<rect id="SVGID_1_" x="51" y="-100.3" width="464" height="344"/>
		</defs>
		<clipPath id="SVGID_2_">
			<use xlink:href="#SVGID_1_"  style="overflow:visible;"/>
		</clipPath>
		<path class="st0" d="M319.2-89.5c-24.3,0-45.2,6.9-60.2,19.2c8.6,6.6,15.8,15.4,21.1,26.1c10.6,21.4,13.5,49.9,7.6,72.5
			c2.1,6.8,2.8,14.4,1.9,22.1c-2.2,18.7-9,30-16.1,36.9c-2.7,9.5-7.4,20.8-13.5,29.9c0,3.9,0.2,7.2,0.3,11c4.5,3.3,15.2,7.9,22.7,11
			c25.2,10.4,61.2,25.4,75,63.9l76.2-0.3c2.8,0,5.4-1.1,7.2-3.1c1.9-2,3-4.8,2.8-7.6c-2.6-43.7-37.9-57.7-63.6-68
			c-14.3-5.7-27.6-11.3-31.5-19.5c-0.6-7.4-0.7-13.2-0.6-19.8v-1.9c6.4-7.1,12.1-19.8,14.5-30.9c5.2-3.3,11.1-10.4,12.9-25.5
			c0.8-6.6-0.5-12.8-3.1-17.3c5.6-14.8,5.6-38.7-3.5-57.3c-7.7-15.8-20.5-25.5-36.9-27.4l-4.4-8.2C326.4-87.2,323.1-89.5,319.2-89.5
			L319.2-89.5z M209-79.4c-35.1,0-62.8,13-78.4,36.9C117.1-22.1,114.3,4.3,123,29c-3,4.6-4.7,11.2-3.8,19.2
			c1.9,16.7,8.1,24.3,13.9,27.7c2.6,12.2,8.7,26.6,15.8,34.3v2.8c0.1,7.6,0.4,13.9-0.3,22.4c-4.3,9.7-17.8,15.7-33.1,22.4
			c-26,11.4-61.5,27-64.3,74.7c-0.2,2.8,0.9,5.6,2.8,7.6c1.9,2,4.5,3.2,7.2,3.2h272.2c2.8,0,5.3-1.1,7.2-3.2c1.9-2,3-4.8,2.8-7.6
			c-2.8-47.8-38.9-62.7-68-74.7c-16.3-6.7-30.7-12.8-35-22.4c-0.7-8.4-0.4-14.8-0.3-22.4v-2.8c6.9-7.7,12.9-22.1,15.4-34.3
			c5.7-3.4,11.9-11,13.9-27.7c0.8-7.3-0.3-14-3.1-18.9c6.4-16.3,6.3-43.7-4.1-64.6C253.9-52,240.1-62,222.8-63.9l-4.7-9.8
			C216.4-77.2,212.8-79.4,209-79.4L209-79.4z M209-79.4"/>
	</g>
</g>
</svg>
